<svg width="200" height="45" viewBox="0 0 200 45" fill="none" xmlns="http://www.w3.org/2000/svg">
<g clip-path="url(#clip0_1610_16550)">
<path fill-rule="evenodd" clip-rule="evenodd" d="M95.7764 29.079C94.4025 29.079 92.8138 28.4228 92.8138 27.1065V22.0256C92.8138 19.4468 98.5969 19.1168 98.5969 23.0119V26.1126C98.5969 27.663 97.2999 29.079 95.7764 29.079ZM92.8138 19.489C92.8138 16.9793 93.4662 17.3745 89.5711 17.3745C89.2449 17.3745 89.1489 17.4743 89.1489 17.7967V37.1149H92.8138V29.6432C92.8368 29.67 92.8637 29.6777 92.8752 29.7238C92.8828 29.7698 92.9212 29.789 92.9327 29.8043C94.1185 31.5236 94.8707 32.0378 97.1847 32.0378C104.062 32.0378 104.541 17.0906 96.7626 17.0906C95.7111 17.0906 94.9436 17.3362 94.2605 17.8312C93.9267 18.073 93.6849 18.215 93.4316 18.5527C93.3741 18.6294 93.2167 18.8827 93.1553 18.9825L92.8138 19.489Z" fill="#201573"/>
<path fill-rule="evenodd" clip-rule="evenodd" d="M105.224 31.1938C105.224 31.9383 106.82 31.6159 108.889 31.6159V24.2824H116.361V20.8977H108.889V16.3847H117.489V13H105.22L105.224 31.1938Z" fill="#201573"/>
<path fill-rule="evenodd" clip-rule="evenodd" d="M79.7009 29.3599C77.4559 29.3599 77.1643 29.0529 77.1643 27.1034C77.1643 25.2422 80.3724 25.695 81.9573 25.695C81.9573 27.0228 82.3296 29.3599 79.7009 29.3599ZM74.0597 20.0539C74.8272 20.2573 75.3491 21.4891 76.3162 21.7462C76.7959 19.9502 81.9573 18.6915 81.9573 22.4523V23.4386C79.5128 23.4386 77.1988 23.1776 75.1918 24.4287C72.8202 25.9061 72.068 32.0423 78.4345 32.0423C81.4892 32.0423 81.8959 29.7206 82.3833 29.3637C82.4409 31.9042 85.0619 31.7622 86.6123 31.7622C87.2762 31.7622 87.0344 30.8949 87.0344 29.2256C87.0344 28.6653 86.6353 28.8035 85.626 28.8035C85.626 26.5738 85.9714 21.2128 84.9199 19.5013C84.8163 19.3286 84.4095 18.776 84.2522 18.6186C81.5467 15.9093 74.7581 17.0606 74.0597 20.0539Z" fill="#201573"/>
<path fill-rule="evenodd" clip-rule="evenodd" d="M193.496 19.6314C195.515 19.6314 196.175 21.2854 196.175 23.0161H190.533C190.533 21.0897 191.704 19.6314 193.496 19.6314ZM186.869 23.5802C186.869 26.2588 186.872 27.7017 188.676 29.9505C190.437 32.1418 194.505 32.3989 197.211 31.1056C197.786 30.8293 197.994 30.6873 198.435 30.3535C198.957 29.9544 199.103 29.8201 199.417 29.2214C198.73 28.1968 197.875 27.6672 197.725 27.1069C196.896 27.3295 196.432 28.9413 194.482 28.9413C192.544 28.9413 190.533 28.7456 190.533 25.4146H199.559C200.135 25.4146 199.981 24.9732 199.981 23.8642C199.981 20.065 197.537 16.9566 193.776 16.9566C191.416 16.9566 190.15 17.3519 188.661 18.8907C187.72 19.8616 186.869 21.7152 186.869 23.5802Z" fill="#201573"/>
<path fill-rule="evenodd" clip-rule="evenodd" d="M62.6394 22.5907C62.6394 21.2053 63.7829 19.9121 65.176 19.9121C67.3365 19.9121 68.2767 20.7065 68.2767 23.2968H62.6355V22.5907H62.6394ZM58.8325 24.567C58.8325 28.6617 61.2118 32.0387 65.1798 32.0387C67.9774 32.0387 70.2223 31.3057 71.5271 29.3601C70.9361 28.6809 70.1955 27.9901 69.6928 27.2456C69.0173 27.6985 68.0963 29.3064 65.7938 29.1567C63.403 28.9994 62.6432 27.7445 62.6432 25.5533H71.6691C71.8993 25.5533 72.0912 25.4688 72.0912 25.2693C72.0912 22.1532 71.3122 19.1484 68.7027 17.8014C66.9719 16.9073 64.324 16.8612 62.5434 17.6978C60.072 18.8606 58.8325 21.4893 58.8325 24.567Z" fill="#201573"/>
<path fill-rule="evenodd" clip-rule="evenodd" d="M149.36 29.2173C148.569 29.2173 147.556 29.2557 147.138 28.4767C146.881 28.0008 146.962 27.6401 146.962 26.9608C146.962 25.138 150.112 25.4105 151.755 25.4105C151.755 26.6884 151.958 27.9663 151.056 28.6609C150.734 28.9141 149.959 29.2173 149.36 29.2173ZM143.861 19.9113C144.471 20.0724 144.809 20.8246 145.975 21.6036C147.184 19.7961 148.163 19.9113 149.924 19.9113C151.697 19.9113 151.758 22.0334 151.758 23.296C149.606 23.296 146.631 23.035 144.966 24.2592C142.061 26.3967 142.617 31.8959 148.094 31.8959C149.809 31.8959 151.774 30.7485 151.9 29.2173C152.599 29.7315 152.261 31.6158 155.001 31.6158H156.694V28.6532H155.285V21.4616C155.285 18.6295 152.656 16.9487 149.928 16.9487C147.798 16.9487 146.225 17.1175 144.67 18.5988C144.306 18.9442 143.911 19.3241 143.861 19.9113Z" fill="#201573"/>
<path fill-rule="evenodd" clip-rule="evenodd" d="M162.615 19.3474C162.615 16.807 163.341 17.2329 158.95 17.2329V31.1939C158.95 31.9115 160.248 31.616 162.193 31.616C162.892 31.616 162.615 29.7241 162.615 28.3733C162.615 27.2412 162.477 21.8303 162.769 21.1971C163.156 20.3567 164.204 19.9154 165.436 19.9154C167.911 19.9154 167.55 22.4213 167.55 24.8504L167.547 30.2115C167.524 31.9269 167.067 31.6199 170.793 31.6199C171.119 31.6199 171.215 31.5201 171.215 31.1977V22.4558C171.215 19.4779 169.776 16.9566 166.844 16.9566C165.394 16.9566 164.123 17.2636 163.256 18.4418L162.615 19.3474Z" fill="#201573"/>
<path fill-rule="evenodd" clip-rule="evenodd" d="M132.44 19.3471C132.44 16.8067 133.166 17.2327 128.775 17.2327V31.1936C128.775 31.9112 130.069 31.6158 132.018 31.6158C132.717 31.6158 132.44 29.7238 132.44 28.373C132.44 27.2601 132.275 21.7725 132.578 21.1776C132.989 20.3641 134.048 19.9151 135.261 19.9151C137.709 19.9151 137.375 22.4248 137.375 24.8502L137.371 30.2112C137.348 31.9266 136.892 31.6196 140.618 31.6196C140.944 31.6196 141.04 31.5198 141.04 31.1975V22.7357C141.04 15.6132 134.697 16.1965 133.058 18.4185L132.617 19.1054C132.467 19.3241 132.567 19.1975 132.44 19.3471Z" fill="#201573"/>
<path fill-rule="evenodd" clip-rule="evenodd" d="M46 13.5678V31.7578H57.1404V28.3731H49.6687V13.1457H46.426C46.0998 13.1457 46 13.2417 46 13.5678Z" fill="#201573"/>
<path fill-rule="evenodd" clip-rule="evenodd" d="M173.472 24.4245C173.472 25.5259 173.637 26.5198 173.909 27.3679C174.285 28.5383 174.404 28.7686 175.099 29.7049C176.968 32.2185 181.377 32.5831 183.91 30.7756C184.551 30.3189 185.717 28.9873 185.74 27.9512C184.838 27.7401 183.94 26.8959 183.062 26.8229C182.16 28.5307 181.745 28.9374 179.819 28.9374C176.741 28.9374 177.282 24.9848 177.282 22.8741C177.282 22.0068 177.516 21.4619 177.866 20.9208C178.76 19.5431 180.986 19.7005 181.941 20.4718C182.448 20.8824 182.498 21.2931 182.782 21.8879C183.269 21.7727 183.825 21.4964 184.286 21.2777C184.823 21.0206 185.253 20.8786 185.744 20.6215C184.558 18.1501 183.361 16.9566 179.823 16.9566C175.586 16.9528 173.472 20.3567 173.472 24.4245Z" fill="#201573"/>
<path fill-rule="evenodd" clip-rule="evenodd" d="M118.338 20.618H121.722V31.1943C121.722 31.9119 123.015 31.6164 124.965 31.6164C125.291 31.6164 125.387 31.5167 125.387 31.1943V17.2333H118.338V20.618Z" fill="#201573"/>
<path fill-rule="evenodd" clip-rule="evenodd" d="M122 13.26C122 14.32 122.137 15.0971 123.574 15.0971C125.763 15.1 125.62 12 123.68 12C122.771 12 122 12.3829 122 13.26Z" fill="#201573"/>
<path d="M32.6445 22.6922C32.6445 20.0852 32.6445 17.4781 32.6445 14.871C32.6445 14.2515 32.3909 13.7983 31.8337 13.503C30.8483 12.9791 29.8712 12.4344 28.8899 11.8981C26.9398 10.8336 24.9897 9.76915 23.0396 8.70471C21.5385 7.88558 20.0416 7.06645 18.5406 6.24733C18.0208 5.96458 17.5011 5.68184 16.9813 5.39909C16.682 5.23693 16.3701 5.16209 16.0333 5.2494C15.8753 5.29098 15.7215 5.3492 15.5801 5.4282C14.7526 5.8731 13.9294 6.32633 13.1061 6.77539C11.4928 7.65689 9.87947 8.53423 8.26616 9.41572C6.12895 10.5841 3.99173 11.7484 1.85452 12.9168C1.45535 13.1371 1.04787 13.3409 0.657014 13.5779C0.141422 13.8897 -0.0914266 14.3554 4.94886e-05 14.9667C0.0083655 15.0082 0.0083655 15.0498 0.00420749 15.0914C-0.00410852 15.2702 -0.0248985 15.4448 -0.0248985 15.6236C-0.0248985 20.476 -0.0248985 25.3242 -0.0248985 30.1766C-0.0248985 30.3388 -0.0332145 30.5051 -0.0165825 30.6673C0.0083655 30.9874 0.0249975 31.3076 0.0832096 31.6195C0.370112 33.1455 1.08113 34.4386 2.22874 35.4906C2.5988 35.8274 2.97302 36.1558 3.34724 36.4843C4.95639 37.8939 6.65286 39.1912 8.42001 40.397C10.7235 41.9687 13.1393 43.3492 15.6508 44.5633C16.0915 44.7754 16.5323 44.7837 16.9647 44.5592C18.0084 44.0228 19.0603 43.4989 20.0874 42.9292C23.0354 41.2951 25.8005 39.3866 28.3867 37.2245C29.156 36.58 29.9211 35.923 30.6321 35.2203C31.9709 33.8939 32.6238 32.2556 32.6404 30.3804C32.6612 27.8232 32.6445 25.2577 32.6445 22.6922ZM30.104 32.8003C29.8628 33.2286 29.5635 33.6111 29.2017 33.9396C26.7859 36.1475 24.1996 38.1309 21.4304 39.8814C19.8337 40.8918 18.1913 41.8107 16.5032 42.659C16.3618 42.7296 16.2495 42.7255 16.1082 42.6548C13.3764 41.291 10.7693 39.7193 8.29943 37.9272C6.6487 36.7296 5.07697 35.4407 3.5593 34.0768C2.93144 33.5155 2.44911 32.8627 2.183 32.0644C2.04163 31.6444 1.96679 31.2078 1.95015 30.7671C1.946 30.6548 1.946 30.5425 1.946 30.4303C1.946 25.8939 1.946 21.3534 1.946 16.817C1.946 16.7047 1.946 16.5966 1.946 16.4428C2.07489 16.4843 2.16637 16.5051 2.24953 16.5384C2.87323 16.8128 3.49277 17.0956 4.11647 17.3741C4.15805 17.3908 4.19548 17.4116 4.23706 17.4282L4.24953 17.345L6.48238 18.3721V28.2265C6.48238 28.2265 6.81086 31.3908 15.1144 35.2702V20.3263C11.5718 18.738 8.02916 17.1538 4.48238 15.5696C3.96679 15.3409 3.45535 15.108 2.93976 14.8793C2.85244 14.8419 2.76928 14.792 2.68612 14.7504C2.68612 14.7297 2.68612 14.7047 2.68196 14.6839C2.75681 14.6382 2.82749 14.5883 2.90649 14.5467C5.5593 13.0997 8.21211 11.6527 10.8608 10.2057C12.6113 9.25356 14.3618 8.30138 16.1082 7.34088C16.2578 7.25772 16.3743 7.26604 16.5156 7.34504C17.4969 7.88558 18.4782 8.4178 19.4595 8.95419C21.1809 9.89389 22.8982 10.8336 24.6196 11.7692C26.3036 12.6881 27.9876 13.607 29.6757 14.5259C29.7589 14.5716 29.8337 14.6299 29.9502 14.7047C29.8296 14.7671 29.7547 14.8087 29.6757 14.8461C28.2786 15.4781 26.8774 16.106 25.4761 16.738C23.9127 17.4407 22.3493 18.1434 20.7859 18.8461C19.6965 19.3367 18.6071 19.8232 17.5177 20.318V35.3658C26.025 31.4448 26.3576 28.2265 26.3576 28.2265V18.4802L27.1685 18.106C27.1685 18.0852 27.1726 18.0644 27.1768 18.0477L30.6404 16.4719C30.6529 16.5134 30.6653 16.555 30.6695 16.5883C30.6778 16.6548 30.6736 16.7213 30.6736 16.792C30.6736 21.345 30.6736 25.8981 30.6736 30.4511C30.6736 31.2785 30.5156 32.0685 30.104 32.8003Z" fill="#201573"/>
</g>
<defs>
<clipPath id="clip0_1610_16550">
<rect width="200" height="39.9168" fill="white" transform="translate(0 5.0415)"/>
</clipPath>
</defs>
</svg>
